
<svg width="24" height="24" viewBox="0 0 24 24" fill="none" xmlns="http://www.w3.org/2000/svg">
  <path d="M7.92843 2.26027L12.3411 6.67499C12.6879 7.02201 12.6879 7.58418 12.3411 7.9312L7.92843 12.3459C7.58157 12.6929 7.01967 12.6929 6.6728 12.3459L2.26015 7.9312C1.91328 7.58418 1.91328 7.02201 2.26015 6.67499L6.6728 2.26027C7.01967 1.91324 7.58157 1.91324 7.92843 2.26027Z" fill="currentColor" />
  <path d="M14.8724 3.28872H21.1125C21.6025 3.28872 22 3.68637 22 4.1766V10.4197C22 10.9099 21.6025 11.3076 21.1125 11.3076H14.8724C14.3824 11.3076 13.9849 10.9099 13.9849 10.4197V4.1766C13.9849 3.68637 14.3824 3.28872 14.8724 3.28872Z" fill="currentColor" />
  <path d="M4.18494 13.9812H10.4251C10.9151 13.9812 11.3126 14.3788 11.3126 14.869V21.1121C11.3126 21.6024 10.9151 22 10.4251 22H4.18494C3.69494 22 3.29748 21.6024 3.29748 21.1121V14.869C3.29748 14.3788 3.69494 13.9812 4.18494 13.9812Z" fill="currentColor" />
  <path d="M14.8724 13.9812H21.1125C21.6025 13.9812 22 14.3788 22 14.869V21.1121C22 21.6024 21.6025 22 21.1125 22H14.8724C14.3824 22 13.9849 21.6024 13.9849 21.1121V14.869C13.9849 14.3788 14.3824 13.9812 14.8724 13.9812Z" fill="currentColor" />
</svg>