<svg viewBox="0 0 24 24" fill="none" xmlns="http://www.w3.org/2000/svg">
    <path d="M15.3048 21.4332C16.6942 20.9439 17.8846 20.199 18.8749 19.2473L18.8718 19.2504C18.2912 18.2281 17.7412 17.3764 17.15 16.5571L17.2086 16.6427C16.1161 17.9369 15.4152 19.5941 15.3054 21.4107L15.3048 21.4332Z" fill="white" />
    <path d="M19.9942 17.9337C20.7313 16.9676 21.3031 15.8297 21.6411 14.5949L21.6573 14.5255C20.475 14.6255 19.3987 15.0029 18.4689 15.5922L18.4975 15.5753C19.0133 16.3421 19.5203 17.1257 19.9942 17.9337Z" fill="white" />
    <path d="M4.97807 4.8858C8.44715 6.3212 11.428 8.2309 14.009 10.5749L13.9828 10.5518C15.3878 8.45212 15.646 5.59444 14.6314 2.36994C13.8276 2.13498 12.9046 2 11.9499 2C9.23164 2 6.76842 3.09608 4.97682 4.8708L4.97807 4.86955V4.8858Z" fill="white" />
    <path d="M6.5244 15.626C5.83844 15.6229 5.16557 15.581 4.50456 15.501L4.58749 15.5091C3.77307 15.4129 3.06903 15.2904 2.37808 15.1323L2.51714 15.1592C3.87721 19.1661 7.59823 21.9975 11.979 22C12.5683 21.9981 13.1433 21.9438 13.7014 21.8413L13.6422 21.85C13.6677 19.3442 14.6087 17.0639 16.1459 15.3235L16.1366 15.3342C15.4643 14.4843 14.7927 13.7263 14.0812 13.0077L14.083 13.0095C12.201 14.6424 9.72907 15.6372 7.02515 15.6372C6.84929 15.6372 6.67406 15.6329 6.5007 15.6247L6.5244 15.626Z" fill="white" />
    <path d="M12.9189 11.8185C10.354 9.49257 7.34266 7.60223 4.03758 6.29681L3.83927 6.22745C2.68998 7.8297 2.00153 9.83126 2.00153 11.9934C2.00153 11.9966 2.00153 11.999 2.00153 12.0022C2.00527 12.4821 2.04144 12.9489 2.10816 13.407L2.1013 13.3513C2.83902 13.5538 3.74449 13.7319 4.66866 13.8494L4.77031 13.86C8.21258 14.235 11.0481 13.5182 12.9189 11.8185Z" fill="white" />
    <path d="M15.2049 11.7097C15.9844 12.4852 16.7209 13.3001 17.4137 14.1525L17.4586 14.2093C18.7307 13.3763 20.281 12.8677 21.9479 12.8346H21.9566C21.9566 12.5515 21.9984 12.2596 21.9984 12.0016C21.9884 8.14716 19.8027 4.80643 16.608 3.14607L16.5525 3.11982C17.3008 6.45243 16.8437 9.43571 15.2055 11.7104L15.2049 11.7097Z" fill="white" />
  </svg>