<svg viewBox="0 0 24 24" fill="none" xmlns="http://www.w3.org/2000/svg">
    <path d="M4.50125 5.41901C4.67625 5.21889 4.85937 5.01876 5.05125 4.83552C8.45 5.005 11.5331 6.2339 14.0088 8.19575L13.9763 8.17073C16.8594 10.5866 19.1044 13.671 20.4825 17.1914L20.535 17.3433C20.3575 17.6316 20.19 17.8737 20.0113 18.1069L20.0269 18.0857C18.6006 14.651 16.4956 11.753 13.8619 9.44465L13.835 9.42151C11.2963 7.27079 8.0975 5.82552 4.58188 5.42652L4.50187 5.41901H4.50125ZM3.19312 7.25328C6.795 7.41714 10.0519 8.77298 12.6081 10.9331L12.585 10.9137C15.1925 13.2276 17.2287 16.1282 18.4931 19.4115L18.5438 19.5603C16.8006 21.0763 14.5081 22 12 22C6.47688 22 2 17.5203 2 11.9937C2 10.257 2.4425 8.62352 3.22 7.20013L3.19375 7.25266L3.19312 7.25328ZM7.35937 3.14259C8.705 2.42276 10.3031 2 12 2C17.5231 2 22 6.47967 22 12.0063C22 13.0444 21.8419 14.0463 21.5487 14.9875L21.5675 14.9168C20.0319 11.5947 17.8544 8.80738 15.175 6.61101L15.1344 6.57849C12.9638 4.86742 10.3225 3.65478 7.43687 3.1576L7.33437 3.14321L7.35937 3.14259Z" fill="white" />
  </svg>