<svg viewBox="0 0 24 24" fill="none" xmlns="http://www.w3.org/2000/svg">
    <path fill-rule="evenodd" clip-rule="evenodd" d="M12.2949 20.1462C12.69 20.9573 13.0467 21.7865 13.3638 22.6311C13.4026 22.7343 13.3259 22.8441 13.2156 22.8441H8.79302L7.99954 21.6803C7.94954 21.6779 7.89898 21.6771 7.84824 21.6764C7.67902 21.6739 7.50751 21.6713 7.34889 21.6062C7.17356 21.4269 7.06427 21.2056 6.95544 20.9852C6.91979 20.913 6.8842 20.8409 6.84635 20.7704C6.7485 20.8781 6.69929 21.014 6.65008 21.15C6.59287 21.308 6.53565 21.4661 6.40201 21.5798C6.03237 21.923 5.85249 22.3822 5.68348 22.8416L2.18204 22.8389C2.08609 22.8388 2.01212 22.7543 2.02554 22.6593L2.02804 22.6416C2.09332 22.1815 2.17076 21.7214 2.2482 21.2613C2.28613 21.036 2.32405 20.8106 2.36055 20.5853C2.16084 20.4212 2.13905 20.1899 2.11687 19.9544C2.10615 19.8406 2.09534 19.7258 2.06432 19.6173C2.11193 19.4903 2.17012 19.3686 2.23889 19.247L2.01671 19.0407C2.02926 18.9824 2.03907 18.9161 2.04934 18.8467C2.09969 18.5066 2.16101 18.0923 2.60918 18.189C2.62334 17.6743 2.5511 17.168 2.47899 16.6627C2.38953 16.0358 2.30027 15.4102 2.37642 14.7717L2.58802 15.0257L2.55099 14.6342C2.77845 14.5178 3.0165 14.4279 3.27041 14.3803C2.94973 14.3392 2.63544 14.2661 2.32258 14.1934C2.23292 14.1725 2.14328 14.1517 2.05374 14.1317C1.96707 13.9054 2.00312 13.6615 2.03821 13.4241L2.04845 13.3541C2.19319 12.4811 2.27627 11.599 2.29707 10.7144C2.50348 10.6448 2.7186 10.634 2.93353 10.6232C3.19233 10.6102 3.45086 10.5973 3.6936 10.4817C3.55606 9.38137 3.52432 8.22289 3.92106 7.16492C4.24374 6.26564 4.85737 5.39282 5.80954 5.07542C6.25918 4.96963 6.83048 4.85325 7.14788 5.28173L7.41237 5.04369C6.68237 3.62071 7.5552 1.53122 9.21092 1.24028C9.75578 1.04984 10.3535 1.20854 10.8508 1.45187L10.8847 1.47315C11.2275 1.68815 11.5668 1.90095 11.9458 2.04433L12.0674 2.26651L12.0093 2.41462C12.2896 3.03883 12.4642 3.7847 12.1944 4.44593C12.0516 4.61728 11.8302 4.67536 11.615 4.73179C11.5512 4.74853 11.4879 4.76512 11.4274 4.78448C11.4274 4.99607 11.4509 5.20765 11.4744 5.41923C11.4861 5.52503 11.4979 5.63086 11.5067 5.73666C11.7988 5.78394 12.0674 5.69961 12.3365 5.61515C12.5792 5.53897 12.8222 5.46267 13.0831 5.48274C13.1011 5.40821 13.1185 5.33369 13.1358 5.25923C13.1899 5.02719 13.2438 4.79588 13.3159 4.5676C13.4322 4.76861 13.4375 4.99608 13.4375 5.21825L13.8766 5.32934V5.54622C14.951 5.55327 16.0243 5.55197 17.0976 5.55066C18.4391 5.54903 19.7807 5.5474 21.1237 5.56209C21.1222 5.58471 21.1198 5.6142 21.1172 5.64678C21.1106 5.72848 21.1025 5.82955 21.1025 5.89006H21.3512V4.58876L21.5945 4.57818L21.5998 5.60441L21.8114 5.85832L21.9701 5.67318C22.1099 5.80103 22.0838 5.96508 22.0581 6.1266C22.0497 6.17895 22.0414 6.23102 22.0388 6.28151C22.2644 6.27975 22.4906 6.28327 22.7169 6.2868L22.7527 6.28736C23.1901 6.2942 23.5604 6.29999 24 6.26564V6.58311C23.9344 6.5842 23.4569 6.58528 23.393 6.58304C23.2504 6.58952 23.1067 6.58656 22.9631 6.58361C22.6382 6.57692 22.3136 6.57024 22.0018 6.67296C21.7373 6.74702 21.4411 6.72586 21.2083 6.57775C21.1903 6.62038 21.186 6.67979 21.1815 6.74115C21.1716 6.87776 21.161 7.0241 20.9967 7.0168C20.6243 7.01892 20.2518 7.01765 19.8797 7.01638C19.3217 7.01448 18.7643 7.01257 18.209 7.02209L17.8228 7.21253C17.6991 7.57862 17.3534 7.83368 17.0408 8.06423L16.9764 8.1118C16.9486 8.51259 17.0447 8.89501 17.1407 9.27721C17.1905 9.47513 17.2402 9.67301 17.2727 9.87333L17.2035 9.89363C17.0455 9.93991 16.884 9.98725 16.7225 10.0426C16.6307 10.2563 16.5913 10.4979 16.5519 10.7397C16.4801 11.1801 16.4083 11.6208 16.019 11.8941C15.8712 11.979 15.7393 12.096 15.6076 12.2129C15.3291 12.46 15.0516 12.7063 14.6277 12.6452C14.9451 12.9044 14.5431 12.8251 14.5854 12.6188C13.6913 12.539 12.9071 12.1128 12.1323 11.6917C11.9308 11.5822 11.7299 11.473 11.5279 11.3704C11.4803 11.6454 11.4115 11.9099 11.3374 12.1744C11.5208 12.2027 11.6909 12.2871 11.8244 12.4159C11.958 12.5447 12.0484 12.7116 12.0833 12.8938C12.1531 13.3823 12.0974 13.8726 12.0415 14.3637C12.0043 14.6917 11.9669 15.02 11.9669 15.3483C11.9934 15.8297 11.7871 16.2741 11.5226 16.6708C11.3584 16.8499 11.131 16.7711 10.9148 16.6961C10.8245 16.6647 10.7361 16.6341 10.6551 16.6232L10.4699 16.9829C10.5002 17.1061 10.5243 17.2308 10.5485 17.3556C10.5875 17.5577 10.6267 17.76 10.6921 17.9562C11.3155 18.6166 11.8539 19.3523 12.2949 20.1462ZM14.8129 7.50876L15.2625 7.50347C15.3472 7.70978 15.3948 7.92666 15.4159 8.14883L15.2361 8.33927C15.0192 8.82065 14.7018 9.28086 14.3051 9.61942C14.1728 9.28615 14.0141 8.96876 13.829 8.66724C13.8028 8.48028 13.9775 8.38848 14.1382 8.30401C14.2049 8.26898 14.2691 8.23521 14.3156 8.19644L14.6277 8.0113C14.4161 7.78383 14.6119 7.64101 14.8129 7.50876Z" fill="white" />
  </svg>