<svg viewBox="0 0 24 24" fill="none" xmlns="http://www.w3.org/2000/svg">
    <path fill-rule="evenodd" clip-rule="evenodd" d="M2 11.9997C2 10.6456 2.26518 9.34998 2.79561 8.11293C3.32597 6.8759 4.03724 5.81154 4.92928 4.91991C5.82132 4.02827 6.88421 3.31871 8.11793 2.79122C9.35166 2.26374 10.6455 2 11.9997 2C13.3605 2 14.6577 2.26374 15.8914 2.79122C17.1252 3.31871 18.188 4.02827 19.0801 4.91991C19.9721 5.81154 20.6817 6.87443 21.2088 8.10856C21.7359 9.34269 21.9996 10.6399 22 12.0003C22 13.3544 21.7363 14.6484 21.2088 15.8821C20.6813 17.1158 19.9717 18.1787 19.0801 19.0707C18.1884 19.9628 17.1241 20.674 15.8871 21.2044C14.65 21.7348 13.3545 22 12.0003 22C10.6462 22 9.35229 21.7348 8.11857 21.2044C6.88485 20.674 5.82196 19.9628 4.92992 19.0707C4.03788 18.1787 3.32661 17.1158 2.79625 15.8821C2.26582 14.6484 2 13.3538 2 11.9997ZM2.85717 12.8458C2.85717 13.0866 2.9157 13.4268 3.03277 13.8664C3.14984 14.306 3.32568 14.773 3.56029 15.2676C3.76862 15.7105 4.04212 16.1694 4.38089 16.6444C4.71961 17.1194 5.01583 17.4888 5.26957 17.7525C5.52336 18.0163 5.67623 18.1448 5.72832 18.1381C5.76081 18.1252 5.78854 18.0846 5.81144 18.0163C5.82347 17.9804 5.83504 17.9401 5.84614 17.8953C5.8562 17.8547 5.86591 17.8105 5.87521 17.7625C5.8948 17.6617 5.91102 17.5917 5.92392 17.5525C6.00228 17.2138 6.0804 16.9469 6.1583 16.7519V16.7325C6.1583 16.6542 6.08662 16.5044 5.94334 16.2832C5.79999 16.0619 5.62584 15.8032 5.42082 15.507C5.21586 15.2107 5.07106 14.9811 4.98648 14.8182C4.889 14.6295 4.78315 14.382 4.66898 14.0758C4.55482 13.7695 4.46855 13.5237 4.41025 13.3383C4.35189 13.1529 4.31608 13.0275 4.30277 12.962C4.28318 12.9166 4.04235 12.845 3.58029 12.7471C3.46322 12.7275 3.34109 12.6933 3.21402 12.6446C3.08695 12.5958 3.00714 12.5714 2.97464 12.5714H2.93529C2.88321 12.591 2.85717 12.6829 2.85717 12.8458ZM9.76094 18.2087C9.74804 18.1958 9.74158 18.1697 9.74158 18.1305C9.74118 18.0393 9.77698 17.9264 9.84906 17.7931C9.87801 17.7395 9.91684 17.6729 9.96561 17.5931C10.0383 17.4741 10.133 17.326 10.2497 17.1487C10.4447 16.8525 10.6074 16.5937 10.7378 16.3725C10.7633 16.3257 10.7972 16.2663 10.8396 16.1941C10.8619 16.1562 10.8865 16.1149 10.9134 16.07C11.1676 15.6404 11.363 15.3215 11.4996 15.1131C11.6363 14.9048 11.7405 14.7973 11.8121 14.7906H11.8903C11.9748 14.7906 12.2759 14.8086 12.7933 14.8444C13.3109 14.8802 13.7454 14.9015 14.0971 14.9081H15.2689C15.8418 14.9081 16.1543 14.9213 16.2064 14.9475C16.2718 14.9863 16.3533 15.2092 16.4507 15.6162C16.5482 16.0233 16.623 16.3733 16.6751 16.6662C16.7535 17.3691 16.7926 17.8703 16.7926 18.1699C16.7926 18.3524 16.7795 18.4697 16.7532 18.5218C16.6949 18.593 16.4866 18.7459 16.1282 18.9805C15.7699 19.2151 15.4183 19.4267 15.0733 19.6155C14.8129 19.7588 14.4175 19.9313 13.8871 20.133C13.3567 20.3346 13.0361 20.4355 12.9252 20.4355C12.8207 20.4355 12.5765 20.3361 12.1928 20.1374C11.809 19.9386 11.4999 19.7449 11.2653 19.5561C11.0115 19.3674 10.7641 19.1688 10.5228 18.9605C10.4095 18.8626 10.3084 18.773 10.2196 18.6917C10.1194 18.5999 10.0348 18.5187 9.96596 18.448C9.94939 18.4311 9.93387 18.415 9.91934 18.3997C9.88958 18.3686 9.864 18.341 9.84261 18.3171C9.79221 18.2609 9.76501 18.2247 9.76094 18.2087ZM15.9076 7.07943C15.9143 7.15109 15.9809 7.28463 16.1076 7.48004C16.2343 7.67546 16.3888 7.90649 16.5714 8.17314C16.7538 8.4398 16.8905 8.66125 16.9813 8.83749C17.1572 9.15665 17.3232 9.49039 17.4794 9.83872C17.6357 10.187 17.7561 10.4637 17.8407 10.6687C17.9252 10.8737 17.9905 11.0055 18.0363 11.0643C18.1013 11.1426 18.4855 11.1818 19.1888 11.1818C19.28 11.1818 19.3452 11.1883 19.3844 11.2012C19.5081 11.1945 19.6887 11.1993 19.9263 11.2156C20.1637 11.2318 20.3021 11.2399 20.3412 11.2399C20.3675 11.2399 20.3935 11.2366 20.4194 11.2299L20.4587 11.2199C20.5108 11.2199 20.5368 11.0766 20.5368 10.7899C20.5368 10.3083 20.4912 9.78101 20.3999 9.20811C20.3675 9.02561 20.3171 8.82375 20.2488 8.60251C20.1804 8.38125 20.1169 8.19418 20.0581 8.04127C20.0268 7.95969 19.9946 7.88593 19.9614 7.81013C19.9325 7.74384 19.9028 7.67599 19.8725 7.6L19.775 7.40953C19.7487 7.35675 19.6138 7.1619 19.37 6.85715C19.3372 6.82117 19.3042 6.78459 19.2712 6.74769L19.1837 6.64959C18.9997 6.44308 18.8129 6.23335 18.6231 6.06321C18.3823 5.8353 18.1024 5.60905 17.7832 5.38449C17.464 5.15991 17.2557 5.04762 17.1582 5.04762C17.154 5.04762 17.1506 5.04828 17.1477 5.04962C17.1453 5.05076 17.1435 5.05235 17.142 5.05443C17.1399 5.05754 17.1388 5.06173 17.1388 5.06699C17.0996 5.07991 17.0541 5.12552 17.002 5.20387C16.9499 5.28219 16.8864 5.39614 16.8113 5.54572C16.7704 5.6272 16.7321 5.70004 16.6962 5.76421C16.6662 5.81785 16.6379 5.86543 16.6114 5.90696C16.6023 5.91987 16.5912 5.93547 16.5781 5.95378L16.5562 5.98413C16.5025 6.05842 16.4231 6.16623 16.3182 6.30757C16.1682 6.50966 16.0593 6.67069 15.9914 6.79069C15.9235 6.91069 15.8951 7.00735 15.9076 7.07943ZM5.45418 9.40079C5.40878 8.99039 5.38606 8.61269 5.38606 8.2677C5.38606 7.25232 5.43233 6.69901 5.52353 6.60776C5.92101 6.14568 6.50707 5.70299 7.28163 5.27968C7.76329 5.00634 8.18641 4.78823 8.55093 4.62533C8.91552 4.46241 9.14344 4.38095 9.2347 4.38095C9.34509 4.38095 9.79425 4.73907 10.5821 5.45529C10.6084 5.47446 10.698 5.54925 10.8509 5.67966C11.0038 5.81008 11.1161 5.90778 11.1878 5.97278L11.4615 6.22153C11.5723 6.32235 11.6521 6.40527 11.7009 6.47026C11.7496 6.53526 11.774 6.58734 11.774 6.62651C11.774 6.69151 11.7088 6.84129 11.5783 7.07587C11.448 7.31045 11.2704 7.60835 11.0459 7.96959C10.8213 8.33083 10.6992 8.5277 10.6797 8.5602C10.6276 8.63853 10.5136 8.84207 10.3378 9.1708C10.162 9.49955 10.0023 9.78267 9.85906 10.0202C9.71572 10.2576 9.61155 10.3895 9.54656 10.4158C9.44861 10.4549 9.22075 10.4745 8.86279 10.4745C8.35492 10.4745 7.92512 10.4549 7.5735 10.4158C7.46305 10.4028 7.22223 10.3866 6.85102 10.367C6.47975 10.3474 6.19166 10.3247 5.98664 10.2989C5.78168 10.2731 5.66606 10.2406 5.63979 10.2014C5.56149 10.0781 5.49958 9.81121 5.45418 9.40079Z" fill="black" />
  </svg>