<svg viewBox="0 0 24 24" fill="none" xmlns="http://www.w3.org/2000/svg">
    <path d="M5.04348 4.81697C6.84174 3.07437 9.29826 2 12.007 2C14.1661 2 16.1661 2.68298 17.8 3.84414L17.7696 3.82331C17.6565 4.09234 17.5304 4.36136 17.4 4.62605C17.3 4.82131 17.1957 5.01658 17.087 5.21618C15.1783 4.49154 12.9713 4.07151 10.6661 4.07151C10.3904 4.07151 10.1165 4.07758 9.84435 4.08973L9.88348 4.088C8.12 4.18172 6.46435 4.44207 4.87043 4.85516L5.04435 4.81697H5.04348ZM3.12174 7.38575C5.13565 6.67153 7.46609 6.18728 9.88609 6.03541L9.96087 6.03194C10.1843 6.02152 10.4452 6.01545 10.7087 6.01545C12.62 6.01545 14.4557 6.33915 16.1635 6.93535L16.0478 6.89977C15.7609 7.33368 15.4522 7.73288 15.113 8.15812C13.6791 7.87087 12.0304 7.70598 10.3435 7.70598C9.51565 7.70598 8.69652 7.7459 7.8887 7.82314L7.9913 7.81533C5.9313 8.02881 4.04783 8.44971 2.25391 9.0624L2.43478 9.00859C2.63739 8.37941 2.86696 7.84223 3.13913 7.33108L3.11304 7.38575H3.12174ZM22 12.762C21.4583 13.3651 20.8896 13.9153 20.2861 14.4247L20.2609 14.4455C20.013 13.9205 19.7435 13.4041 19.4435 12.8878C20.2983 12.0139 21.0765 11.0584 21.7626 10.0352L21.8087 9.9632C21.9304 10.5542 22 11.2328 22 11.928C22 11.954 22 11.98 22 12.0061V12.0017C22 12.2577 22 12.5094 22 12.7611V12.762ZM20.9739 7.55932L20.8826 7.73288C20.1496 9.05285 19.3113 10.1923 18.3487 11.2129L18.3565 11.2042C17.887 10.5273 17.3536 9.85472 16.7565 9.1865C17.6191 8.11039 18.4078 6.90063 19.073 5.61625L19.1304 5.49388L19.3 5.15543C19.9513 5.84535 20.5096 6.63421 20.9478 7.49336L20.9739 7.55064V7.55932ZM19.613 18.5113C18.5843 19.7072 17.2957 20.6505 15.8322 21.2597L15.7652 21.284C15.2487 20.5073 14.7522 19.6117 14.3278 18.6762L14.2783 18.5547C13.1191 15.9972 12.2104 13.024 11.6983 9.91721L11.6696 9.70719C12.9017 9.79051 14.0339 9.94411 15.14 10.1689L14.9739 10.1411C16.5017 11.77 17.7704 13.6645 18.7009 15.7438L18.7522 15.8731C19.0757 16.6099 19.3713 17.4899 19.5904 18.3994L19.613 18.5113V18.5113ZM2 11.2129C2.67826 10.9612 3.35652 10.7399 4.02609 10.549C4.11652 13.2106 4.6513 15.7204 5.55739 18.0462L5.50435 17.8908C5.88087 18.9279 6.24 19.7601 6.63913 20.5681L6.56957 20.4119C3.80261 18.6068 2 15.5295 2 12.0312C2 12.0208 2 12.0113 2 12.0009V12.0026C2 11.7379 2 11.4732 2 11.2129V11.2129ZM9.67826 9.65512C10.2391 13.2809 11.2209 16.5422 12.5887 19.5926L12.4913 19.3488C12.9365 20.3355 13.3722 21.1513 13.853 21.9366L13.7957 21.8351C13.2504 21.9401 12.6235 22 11.9826 22C11.1113 22 10.267 21.8889 9.46087 21.6806L9.53043 21.6963C8.68522 20.4058 7.94957 18.9235 7.39652 17.3554L7.35217 17.2096C6.50696 15.0938 6.00609 12.6422 5.98261 10.0769V10.0673C6.57217 9.93977 7.31391 9.82522 8.06696 9.74885L8.15652 9.74191C8.66087 9.70286 9.17391 9.67248 9.6913 9.65512H9.67826Z" fill="white" />
  </svg>